<svg xmlns="http://www.w3.org/2000/svg" viewBox="0 0 64 64">
<rect width="64" height="64" rx="14" fill="#0a1206"/>
<rect x="1.75" y="1.75" width="60.5" height="60.5" rx="12.5" fill="none" stroke="#c79a36" stroke-width="1.5" opacity="0.5"/>
<path d="M32 11 C 45 22, 45 41, 32 53 C 19 41, 19 22, 32 11 Z" fill="#7ec850"/>
<path d="M32 11 C 45 22, 45 41, 32 53 C 19 41, 19 22, 32 11 Z" fill="none" stroke="#bff06a" stroke-width="1.6" opacity="0.6"/>
<line x1="32" y1="14" x2="32" y2="50" stroke="#2e5e2e" stroke-width="2.4"/>
<path d="M32 25 L 40 22 M32 33 L 41 32 M32 41 L 38 42 M32 25 L 24 22 M32 33 L 23 32 M32 41 L 26 42" stroke="#2e5e2e" stroke-width="1.5" fill="none" opacity="0.85"/>
</svg>